<?xml version="1.0" standalone="no"?>
<!DOCTYPE svg PUBLIC "-//W3C//DTD SVG 20010904//EN"
 "http://www.w3.org/TR/2001/REC-SVG-20010904/DTD/svg10.dtd">
<svg version="1.0" xmlns="http://www.w3.org/2000/svg"
 width="256.000000pt" height="256.000000pt" viewBox="0 0 256.000000 256.000000"
 preserveAspectRatio="xMidYMid meet">

<g transform="translate(0.000000,256.000000) scale(0.100000,-0.100000)"
fill="#000000" stroke="none">
<path d="M850 1540 l0 -270 410 0 410 0 0 270 0 270 -85 0 -85 0 0 -146 c0
-126 -2 -145 -15 -140 -8 3 -57 39 -109 81 -51 41 -96 75 -100 75 -3 0 -6 -65
-6 -145 l0 -145 35 0 34 0 3 76 3 75 100 -75 c55 -42 103 -76 108 -76 4 0 7
83 7 185 l0 185 25 0 25 0 0 -220 0 -220 -352 2 -353 3 0 215 0 215 278 3 277
2 0 25 0 25 -305 0 -305 0 0 -270z"/>
<path d="M960 1525 l0 -135 145 0 145 0 0 25 0 25 -115 0 -115 0 0 35 0 35 80
0 c73 0 80 2 80 20 0 18 -7 20 -80 20 l-80 0 0 35 0 35 110 0 c103 0 110 1
110 20 0 19 -7 20 -140 20 l-140 0 0 -135z"/>
<path d="M546 1153 c-14 -4 -16 -7 -6 -13 11 -7 9 -24 -10 -92 -12 -46 -25
-91 -27 -100 -3 -10 -1 -18 5 -18 12 0 53 80 47 90 -2 4 4 37 15 74 19 68 18
70 -24 59z"/>
<path d="M2386 1153 c-14 -4 -16 -7 -6 -13 11 -7 8 -27 -13 -102 -15 -52 -27
-99 -27 -106 0 -19 25 -14 46 10 15 19 16 20 2 9 -24 -18 -23 -6 7 98 14 47
25 91 25 98 0 13 -2 14 -34 6z"/>
<path d="M154 1138 c18 -14 17 -17 -4 -94 -12 -43 -26 -87 -31 -96 -7 -13 -6
-18 3 -18 8 0 20 31 32 80 10 44 22 82 25 85 4 2 22 -37 40 -86 19 -50 37 -87
41 -82 4 4 19 51 33 103 15 52 35 101 44 108 14 10 11 12 -23 12 -28 0 -35 -3
-24 -10 12 -8 12 -19 -5 -84 -10 -42 -21 -73 -24 -70 -3 3 -19 40 -36 82 -27
70 -33 77 -60 80 -28 3 -29 2 -11 -10z"/>
<path d="M1739 1141 c11 -7 8 -27 -17 -110 -30 -101 -30 -101 -8 -101 17 0 21
7 23 34 3 59 18 76 68 76 51 0 54 -8 31 -72 -13 -37 -13 -38 11 -38 13 0 21 4
18 10 -9 14 45 183 63 198 13 10 9 12 -29 12 -30 0 -39 -3 -30 -9 12 -8 13
-16 2 -50 -12 -41 -12 -41 -61 -41 -28 0 -50 4 -50 9 0 21 22 67 37 79 14 10
10 12 -28 12 -29 0 -39 -3 -30 -9z"/>
<path d="M2138 1085 c-15 -13 -23 -25 -18 -27 6 -2 3 -23 -5 -52 -19 -61 -19
-86 -2 -86 8 0 22 10 33 23 10 12 12 16 4 10 -8 -7 -17 -13 -21 -13 -13 0 22
104 39 118 10 8 11 12 3 12 -8 0 -10 7 -6 20 8 25 6 25 -27 -5z"/>
<path d="M366 1039 c-14 -17 -29 -41 -32 -55 -14 -54 23 -80 62 -44 l24 23 0
-21 c0 -25 22 -29 40 -7 11 13 10 14 -3 9 -14 -5 -14 1 2 59 l19 65 -43 0
c-37 1 -48 -4 -69 -29z m71 -15 c-6 -39 -41 -84 -64 -84 -20 0 -16 50 7 88 12
20 28 32 41 32 19 0 21 -4 16 -36z"/>
<path d="M592 1063 c-7 -2 -17 -14 -24 -26 -11 -22 -11 -22 11 -3 31 28 36 14
18 -49 -18 -63 -7 -81 27 -44 12 13 14 17 4 10 -22 -16 -21 -18 -3 43 8 27 15
55 15 63 0 13 -23 16 -48 6z"/>
<path d="M680 1055 c-11 -13 -10 -14 5 -8 14 5 17 3 12 -10 -41 -107 -25 -147
36 -89 29 26 30 26 24 5 -3 -13 -1 -25 3 -28 13 -8 38 5 44 22 6 13 4 14 -9 3
-14 -12 -15 -10 -9 16 4 16 11 39 15 52 12 30 11 52 0 52 -5 0 -14 -15 -20
-33 -13 -40 -66 -105 -77 -95 -4 5 -2 27 5 50 7 24 15 51 17 61 7 22 -28 24
-46 2z"/>
<path d="M867 1063 c-13 -12 -7 -45 14 -74 11 -16 18 -36 15 -44 -9 -23 -44
-18 -52 8 -7 21 -7 21 -15 2 -4 -11 -8 -22 -8 -25 -1 -3 18 -6 40 -5 31 0 45
5 55 21 13 18 12 25 -11 58 -30 45 -31 56 -5 56 12 0 24 -9 29 -22 8 -21 8
-21 13 5 5 25 3 27 -32 27 -20 0 -40 -3 -43 -7z"/>
<path d="M999 1041 c-31 -32 -40 -86 -17 -109 17 -17 53 -15 75 6 10 9 13 13
7 9 -23 -15 -59 -3 -62 19 -2 17 3 23 31 28 68 13 90 76 27 76 -21 0 -41 -9
-61 -29z m81 9 c0 -15 -42 -50 -62 -50 -22 0 -23 9 -2 38 15 22 64 31 64 12z"/>
<path d="M1137 1059 c8 -8 6 -27 -7 -70 -22 -72 -5 -81 26 -15 11 25 17 43 13
40 -4 -2 -4 9 1 26 8 28 7 30 -18 30 -19 0 -23 -3 -15 -11z"/>
<path d="M1194 1049 c-19 -22 -19 -22 3 -8 31 19 34 10 18 -46 -8 -26 -15 -54
-15 -62 0 -20 25 -15 46 9 19 22 19 22 0 8 -18 -14 -19 -13 -12 15 20 88 20
105 -1 105 -11 0 -28 -10 -39 -21z"/>
<path d="M1316 1039 c-31 -37 -43 -76 -29 -98 15 -24 36 -24 61 -1 l22 21 0
-21 c0 -26 22 -26 46 2 15 19 16 20 2 9 -23 -17 -24 -3 -3 65 8 27 15 50 15
50 0 1 -20 2 -44 2 -38 1 -49 -3 -70 -29z m74 -9 c0 -34 -50 -97 -68 -86 -31
19 10 116 48 116 16 0 20 -7 20 -30z"/>
<path d="M1468 1057 c6 -7 14 -42 18 -77 6 -59 4 -67 -16 -85 -12 -11 -28 -20
-36 -20 -16 0 -20 -18 -6 -23 23 -7 162 164 162 199 0 11 -7 19 -16 19 -12 0
-15 -6 -11 -22 6 -23 -12 -67 -37 -87 -14 -12 -16 -9 -16 25 0 60 -10 84 -32
84 -16 0 -18 -3 -10 -13z"/>
<path d="M1959 1041 c-39 -39 -41 -96 -4 -113 50 -22 115 31 115 95 0 54 -64
65 -111 18z m81 -13 c0 -42 -35 -100 -57 -96 -32 6 -37 32 -15 81 17 38 26 47
46 47 23 0 26 -4 26 -32z"/>
<path d="M2237 1059 c-22 -13 -47 -61 -47 -92 0 -48 44 -61 95 -27 17 11 25
20 20 20 -6 0 -16 -5 -22 -11 -18 -18 -58 -7 -61 17 -2 17 4 23 29 28 39 8 69
32 69 58 0 14 -7 18 -32 18 -18 0 -41 -5 -51 -11z m63 -9 c0 -17 -39 -50 -60
-50 -18 0 -19 3 -9 23 7 12 17 25 23 29 16 11 46 10 46 -2z"/>
</g>
</svg>
