<svg width="317" height="110" viewBox="0 0 317 110" fill="none" xmlns="http://www.w3.org/2000/svg">
<path d="M100.857 30.9023V61.8047H157.072H213.286V30.9023V1.60933e-06H201.632H189.978V16.7102C189.978 31.1313 189.704 33.3059 187.921 32.7336C186.824 32.3902 180.106 28.2699 172.976 23.4629C165.984 18.7703 159.814 14.8789 159.265 14.8789C158.854 14.8789 158.443 22.3184 158.443 31.4746V48.0703H163.242H167.903L168.315 39.3719L168.726 30.7879L182.437 39.3719C189.978 44.1789 196.559 48.0703 197.245 48.0703C197.793 48.0703 198.204 38.5707 198.204 26.8965V5.72266H201.632H205.06V30.9023V56.082L156.797 55.8531L108.398 55.5098V30.9023V6.29492L146.514 5.95156L184.494 5.72266V2.86133V1.60933e-06H142.675H100.857V30.9023Z" fill="black"/>
<path d="M115.939 32.6191V48.0703H135.82H155.701V45.209V42.3477H139.933H124.165V38.3418V34.3359H135.134C145.143 34.3359 146.103 34.107 146.103 32.0469C146.103 29.9867 145.143 29.7578 135.134 29.7578H124.165V25.752V21.7461H139.247C153.37 21.7461 154.329 21.6316 154.329 19.457C154.329 17.2824 153.37 17.168 135.134 17.168H115.939V32.6191Z" fill="black"/>
<path d="M59.1755 75.1957C57.256 75.6535 56.9818 75.9969 58.3529 76.6836C59.8611 77.4848 59.5869 79.4305 56.9818 87.2133C55.3365 92.4781 53.5541 97.6285 53.2798 98.6586C52.8685 99.8031 53.1427 100.719 53.9654 100.719C55.6107 100.719 61.2322 91.5625 60.4095 90.418C60.1353 89.9602 60.958 86.1832 62.4662 81.9484C65.0712 74.1656 64.9341 73.9367 59.1755 75.1957Z" fill="black"/>
<path d="M311.457 75.1958C309.537 75.6536 309.263 75.9969 310.634 76.6837C312.142 77.4848 311.731 79.7739 308.852 88.3579C306.795 94.3094 305.15 99.6887 305.15 100.49C305.15 102.665 308.577 102.092 311.457 99.3454C313.513 97.1708 313.651 97.0563 311.731 98.3153C308.44 100.375 308.577 99.002 312.691 87.0989C314.61 81.7196 316.118 76.6837 316.118 75.8825C316.118 74.3946 315.844 74.2801 311.457 75.1958Z" fill="black"/>
<path d="M5.42867 76.9126C7.89664 78.5149 7.75953 78.8583 4.88024 87.6712C3.23492 92.5927 1.31539 97.6286 0.629846 98.6587C-0.329919 100.147 -0.19281 100.719 1.04117 100.719C2.13805 100.719 3.78336 97.1708 5.42867 91.5626C6.79977 86.5266 8.44508 82.1774 8.85641 81.8341C9.40485 81.6052 11.8728 86.0688 14.3408 91.677C16.9459 97.3997 19.4138 101.634 19.9623 101.062C20.5107 100.604 22.5673 95.2251 24.4869 89.2735C26.5435 83.322 29.2857 77.7138 30.5197 76.9126C32.4392 75.7681 32.0279 75.5391 27.3662 75.5391C23.5271 75.5391 22.5673 75.8825 24.0756 76.6837C25.7209 77.5993 25.7209 78.8583 23.39 86.2977C22.0189 91.1048 20.5107 94.6528 20.0994 94.3095C19.6881 93.9661 17.4943 89.7313 15.1634 84.9243C11.4615 76.9126 10.6388 76.1114 6.93688 75.7681C3.09782 75.4247 2.96071 75.5391 5.42867 76.9126Z" fill="black"/>
<path d="M222.747 76.5691C224.255 77.3703 223.844 79.6594 220.416 89.159C216.303 100.719 216.303 100.719 219.319 100.719C221.65 100.719 222.199 99.9176 222.473 96.8273C222.884 90.0746 224.941 88.1289 231.796 88.1289C238.789 88.1289 239.2 89.0445 236.047 96.3695C234.264 100.604 234.264 100.719 237.555 100.719C239.337 100.719 240.434 100.261 240.023 99.5742C238.789 97.9719 246.193 78.6293 248.661 76.9125C250.443 75.768 249.895 75.5391 244.685 75.5391C240.571 75.5391 239.337 75.8824 240.571 76.5691C242.217 77.4848 242.354 78.4004 240.845 82.2918C239.2 86.9844 239.2 86.9844 232.482 86.9844C228.643 86.9844 225.626 86.5266 225.626 85.9543C225.626 83.5508 228.643 78.2859 230.699 76.9125C232.619 75.768 232.07 75.5391 226.86 75.5391C222.884 75.5391 221.513 75.8824 222.747 76.5691Z" fill="black"/>
<path d="M277.454 82.9785C275.397 84.4664 274.3 85.8398 274.986 86.0688C275.808 86.2977 275.397 88.7012 274.3 92.0203C271.695 99.002 271.695 101.863 274.026 101.863C275.123 101.863 277.042 100.719 278.551 99.2309C279.922 97.8574 280.196 97.3996 279.099 98.0863C278.002 98.8875 276.768 99.5742 276.22 99.5742C274.437 99.5742 279.236 87.6711 281.567 86.0688C282.938 85.1531 283.075 84.6953 281.978 84.6953C280.881 84.6953 280.607 83.8941 281.156 82.4063C282.252 79.5449 281.978 79.5449 277.454 82.9785Z" fill="black"/>
<path d="M34.4959 88.2434C32.5763 90.1891 30.5197 92.9359 30.1084 94.5383C28.1888 100.719 33.2619 103.695 38.6091 99.5742L41.8998 96.9418V99.3453C41.8998 102.207 44.9162 102.664 47.3841 100.146C48.8923 98.6586 48.7552 98.5441 46.9728 99.1164C45.0533 99.6887 45.0533 99.002 47.247 92.3637L49.8521 84.9242H43.9564C38.8834 84.8098 37.3752 85.382 34.4959 88.2434ZM44.2306 89.9602C43.408 94.4238 38.6091 99.5742 35.4556 99.5742C32.7134 99.5742 33.2619 93.8516 36.4154 89.5023C38.0607 87.2133 40.2545 85.8398 42.0369 85.8398C44.642 85.8398 44.9162 86.2977 44.2306 89.9602Z" fill="black"/>
<path d="M65.4826 85.4965C64.5228 85.7254 63.1517 87.0988 62.192 88.4723C60.6838 90.9902 60.6838 90.9902 63.7002 88.8156C67.9506 85.6109 68.6361 87.2133 66.1681 94.4238C63.7002 101.634 65.2084 103.695 69.8701 99.4598C71.5154 97.9719 71.7896 97.5141 70.4185 98.3152C67.4021 100.146 67.5392 100.375 70.0072 93.3938C71.1041 90.3035 72.0638 87.0988 72.0638 86.1832C72.0638 84.6953 68.9103 84.352 65.4826 85.4965Z" fill="black"/>
<path d="M77.5482 86.4122C76.04 87.9001 76.1771 88.0145 78.2338 87.3278C80.1533 86.7556 80.5646 86.9845 79.8791 88.4724C74.2576 100.719 76.4513 105.297 84.815 98.6587C88.7912 95.6829 88.9283 95.6829 88.1056 98.0864C87.6943 99.5743 87.9685 100.948 88.517 101.291C90.2994 102.207 93.7271 100.719 94.5498 98.7731C95.3724 97.2853 95.0982 97.1708 93.3158 98.4298C91.3963 99.8032 91.2591 99.5743 92.0818 96.5985C92.6302 94.7673 93.59 92.1349 94.1384 90.647C95.7838 87.2134 95.6466 84.6954 94.1384 84.6954C93.4529 84.6954 92.2189 86.4122 91.3963 88.4724C89.6138 93.0505 82.347 100.49 80.8388 99.3454C80.2904 98.7731 80.5646 96.2552 81.5244 93.6228C82.4841 90.8759 83.581 87.7856 83.8552 86.6411C84.815 84.1231 80.0162 83.8942 77.5482 86.4122Z" fill="black"/>
<path d="M103.188 85.4965C101.405 86.8699 102.228 90.6469 105.107 93.966C106.615 95.7973 107.575 98.0863 107.164 99.002C105.93 101.634 101.131 101.062 100.034 98.0863C99.0744 95.6828 99.0744 95.6828 97.9775 97.8574C97.4291 99.1164 96.8806 100.375 96.8806 100.719C96.7435 101.062 99.3486 101.405 102.365 101.291C106.615 101.291 108.535 100.719 109.906 98.8875C111.688 96.8274 111.551 96.0262 108.398 92.2492C104.285 87.0988 104.147 85.8399 107.712 85.8399C109.358 85.8399 111.003 86.8699 111.688 88.3578C112.785 90.7613 112.785 90.7613 113.471 87.7856C114.156 84.9242 113.882 84.6953 109.083 84.6953C106.341 84.6953 103.599 85.0387 103.188 85.4965Z" fill="black"/>
<path d="M121.286 88.0145C117.036 91.677 115.802 97.8574 118.955 100.49C121.286 102.436 126.222 102.207 129.238 99.8031C130.61 98.7731 131.021 98.3153 130.198 98.7731C127.045 100.49 122.109 99.1164 121.697 96.5985C121.423 94.6528 122.109 93.966 125.948 93.3938C135.271 91.9059 138.288 84.6953 129.65 84.6953C126.77 84.6953 124.028 85.7254 121.286 88.0145ZM132.392 86.9844C132.392 88.7012 126.633 92.707 123.891 92.707C120.875 92.707 120.738 91.677 123.617 88.3578C125.674 85.8399 132.392 84.8098 132.392 86.9844Z" fill="black"/>
<path d="M140.207 85.9544C141.304 86.87 141.03 89.0446 139.247 93.9661C136.231 102.207 138.562 103.237 142.812 95.6829C144.32 92.8216 145.143 90.7614 144.595 91.1048C144.046 91.3337 144.046 90.0747 144.732 88.129C145.829 84.9243 145.692 84.6954 142.264 84.6954C139.659 84.6954 139.11 85.0387 140.207 85.9544Z" fill="black"/>
<path d="M148.022 87.0988C145.417 89.6168 145.417 89.6168 148.434 88.0144C152.684 85.8398 153.095 86.8699 150.902 93.2793C149.805 96.2551 148.845 99.4597 148.845 100.375C148.845 102.664 152.273 102.092 155.152 99.3453C157.757 96.8273 157.757 96.8273 155.152 98.4297C152.684 100.032 152.547 99.9176 153.507 96.7129C156.249 86.641 156.249 84.6953 153.37 84.6953C151.861 84.6953 149.531 85.8398 148.022 87.0988Z" fill="black"/>
<path d="M164.75 88.2434C160.499 92.4782 158.854 96.9419 160.774 99.4598C162.83 102.207 165.71 102.207 169.137 99.5743L172.154 97.1708V99.5743C172.154 102.55 175.17 102.55 178.461 99.3454C180.517 97.1708 180.654 97.0563 178.735 98.3153C175.581 100.261 175.444 98.6587 178.324 90.8759C179.42 87.7856 180.38 85.1532 180.38 85.1532C180.38 85.0388 177.638 84.9243 174.347 84.9243C169.137 84.8099 167.629 85.2677 164.75 88.2434ZM174.896 89.2735C174.896 93.1649 168.04 100.375 165.572 99.1165C161.322 96.9419 166.944 85.8399 172.154 85.8399C174.347 85.8399 174.896 86.6411 174.896 89.2735Z" fill="black"/>
<path d="M185.59 86.1832C186.413 86.9844 187.51 90.9903 188.058 94.9961C188.881 101.749 188.607 102.664 185.865 104.725C184.219 105.984 182.026 107.014 180.929 107.014C178.735 107.014 178.186 109.074 180.106 109.646C183.26 110.447 202.318 90.8758 202.318 86.87C202.318 85.611 201.358 84.6954 200.124 84.6954C198.479 84.6954 198.067 85.3821 198.616 87.2133C199.438 89.8457 196.97 94.8817 193.543 97.1707C191.623 98.5442 191.349 98.2008 191.349 94.3094C191.349 87.4422 189.978 84.6954 186.961 84.6954C184.768 84.6954 184.494 85.0387 185.59 86.1832Z" fill="black"/>
<path d="M252.911 88.0145C247.564 92.4781 247.29 99.002 252.363 100.948C259.218 103.466 268.13 97.3996 268.13 90.0746C268.13 83.8942 259.355 82.6352 252.911 88.0145ZM264.017 89.5024C264.017 94.3094 259.218 100.948 256.202 100.49C251.814 99.8031 251.129 96.8274 254.145 91.2192C256.476 86.8699 257.71 85.8399 260.452 85.8399C263.606 85.8399 264.017 86.2977 264.017 89.5024Z" fill="black"/>
<path d="M291.027 85.9543C288.011 87.4422 284.583 92.936 284.583 96.484C284.583 101.978 290.616 103.466 297.609 99.5742C299.94 98.3153 301.036 97.2852 300.351 97.2852C299.528 97.2852 298.157 97.8574 297.335 98.5442C294.867 100.604 289.382 99.3453 288.971 96.5985C288.697 94.6528 289.519 93.966 292.947 93.3938C298.294 92.4781 302.408 89.7313 302.408 86.7555C302.408 85.1531 301.448 84.6953 298.02 84.6953C295.552 84.6953 292.399 85.2676 291.027 85.9543ZM299.665 86.9844C299.665 88.9301 294.318 92.707 291.439 92.707C288.971 92.707 288.834 92.3637 290.205 90.0746C291.165 88.7012 292.536 87.2133 293.358 86.7555C295.552 85.4965 299.665 85.611 299.665 86.9844Z" fill="black"/>
</svg>
