<svg width="800" height="800" viewBox="0 0 800 800" fill="none" xmlns="http://www.w3.org/2000/svg">
<path d="M400 0C178.8 0 0 178.8 0 400C0 621.2 178.8 800 400 800C621.2 800 800 621.2 800 400C800 178.8 621.2 0 400 0ZM572 572C568.299 575.708 563.904 578.65 559.065 580.657C554.226 582.665 549.039 583.698 543.8 583.698C538.561 583.698 533.374 582.665 528.535 580.657C523.696 578.65 519.301 575.708 515.6 572L400 456.4L284.4 572C276.921 579.479 266.777 583.681 256.2 583.681C245.623 583.681 235.479 579.479 228 572C220.521 564.521 216.319 554.377 216.319 543.8C216.319 538.563 217.351 533.377 219.355 528.538C221.359 523.7 224.297 519.303 228 515.6L343.6 400L228 284.4C220.521 276.921 216.319 266.777 216.319 256.2C216.319 245.623 220.521 235.479 228 228C235.479 220.521 245.623 216.319 256.2 216.319C266.777 216.319 276.921 220.521 284.4 228L400 343.6L515.6 228C519.303 224.297 523.7 221.359 528.538 219.355C533.377 217.351 538.563 216.319 543.8 216.319C549.037 216.319 554.223 217.351 559.062 219.355C563.9 221.359 568.297 224.297 572 228C575.703 231.703 578.641 236.1 580.645 240.938C582.649 245.777 583.681 250.963 583.681 256.2C583.681 261.437 582.649 266.623 580.645 271.462C578.641 276.3 575.703 280.697 572 284.4L456.4 400L572 515.6C587.2 530.8 587.2 556.4 572 572Z" fill="#F24E1E"/>
</svg>
